<?xml version="1.0" encoding="utf-8"?>
<!DOCTYPE svg PUBLIC "-//W3C//DTD SVG 1.1//EN" "http://www.w3.org/Graphics/SVG/1.1/DTD/svg11.dtd">
<svg version="1.1" xmlns="http://www.w3.org/2000/svg" xmlns:xlink="http://www.w3.org/1999/xlink" x="0px" y="0px"
	 width="32px" height="36px" viewBox="0 0 32 24" enable-background="new 0 0 32 24" xml:space="preserve">
	<path fill="white" d="M31.414,5.672l-5.08-5.081c-0.375-0.375-0.884-0.586-1.414-0.586H7.081c-0.53,0-1.039,0.211-1.414,0.586
		l-5.08,5.081C0.194,6.064-0.002,6.581,0,7.099c0.003,0.47,0.171,0.939,0.506,1.316l13.999,14.908
		c0.38,0.427,0.924,0.671,1.495,0.671c0.571,0,1.115-0.244,1.495-0.671l14-14.908C31.837,8.03,32.005,7.548,32,7.068
		C31.996,6.561,31.799,6.057,31.414,5.672z M18.22,7.005H13.78L16,5.156L18.22,7.005z M16.781,4.505l2.733-2.278l2.018,2.018
		L19,6.354L16.781,4.505z M13,6.354l-2.532-2.11l2.018-2.018l2.733,2.278L13,6.354z M18.49,8.005L16,20.457L13.51,8.005H18.49z
		 M19.51,8.005h4.907l-7.36,12.268L19.51,8.005z M19.78,7.005l2.462-2.051l2.051,2.051H19.78z M20.707,2.005h3.513l-1.916,1.597
		L20.707,2.005z M16,3.855l-2.22-1.85h4.439L16,3.855z M9.696,3.602L7.78,2.005h3.513L9.696,3.602z M9.758,4.955l2.462,2.051H7.707
		L9.758,4.955z M12.49,8.005l2.453,12.268L7.583,8.005H12.49z M12.704,18.484L2.864,8.005h3.554L12.704,18.484z M25.582,8.005h3.555
		l-9.842,10.479L25.582,8.005z M25.707,7.005l-2.693-2.693l2.298-1.915l4.607,4.608H25.707z M6.686,2.395l2.301,1.917L6.293,7.005
		H2.006L6.686,2.395z"/>
</svg>
