<?xml version="1.0" encoding="utf-8"?>
<!DOCTYPE svg PUBLIC "-//W3C//DTD SVG 1.1//EN" "http://www.w3.org/Graphics/SVG/1.1/DTD/svg11.dtd">
<svg version="1.1" xmlns="http://www.w3.org/2000/svg" xmlns:xlink="http://www.w3.org/1999/xlink" x="0px" y="0px"
	 width="40px" height="40px" viewBox="0 0 40 40" enable-background="new 0 0 40 40" xml:space="preserve">
	<path fill-rule="evenodd" clip-rule="evenodd" fill="white" d="M33.164,14.471c-1.249-0.328-4.19-0.324-8.488-0.437
		c0.204-0.939,0.25-1.785,0.25-3.286C24.926,7.16,22.313,4,20,4c-1.633,0-2.98,1.335-3,2.976c-0.022,2.014-0.645,5.492-4,7.256
		c-0.246,0.13-0.95,0.476-1.053,0.522L12,14.8c-0.526-0.453-1.253-0.8-2-0.8H7c-1.654,0-3,1.346-3,3V33c0,1.654,1.346,3,3,3h3
		c1.19,0,2.186-0.718,2.668-1.727c0.012,0.004,0.033,0.01,0.047,0.012c0.066,0.018,0.144,0.037,0.239,0.063
		c0.017,0.004,0.027,0.006,0.046,0.012c0.576,0.143,1.685,0.408,4.055,0.953C17.563,35.428,20.246,36,23.028,36h5.466
		c1.667,0,2.867-0.64,3.582-1.928c0.011-0.02,0.241-0.469,0.429-1.076c0.141-0.457,0.193-1.104,0.023-1.76
		c1.073-0.738,1.419-1.853,1.644-2.58c0.376-1.191,0.263-2.086,0.001-2.727c0.604-0.57,1.119-1.439,1.337-2.766
		c0.135-0.822-0.01-1.668-0.389-2.373c0.566-0.635,0.825-1.435,0.853-2.175l0.012-0.209C35.994,18.275,36,18.194,36,17.906
		C36,16.642,35.126,15.032,33.164,14.471z M11,33c0,0.553-0.447,1-1,1H7c-0.553,0-1-0.447-1-1V17c0-0.553,0.447-1,1-1h3
		c0.553,0,1,0.448,1,1V33z M33.978,18.535C33.957,19.029,33.75,20,32,20c-1.5,0-2,0-2,0c-0.276,0-0.5,0.223-0.5,0.5
		c0,0.276,0.224,0.5,0.5,0.5c0,0,0.438,0,1.938,0c1.5,0,1.697,1.245,1.6,1.845C33.415,23.59,33.064,25,31.376,25
		C29.687,25,29,25,29,25c-0.277,0-0.5,0.223-0.5,0.5c0,0.275,0.223,0.5,0.5,0.5c0,0,1.188,0,1.969,0c1.688,0,1.54,1.287,1.297,2.055
		C31.947,29.064,31.752,30,29.626,30c-0.72,0-1.632,0-1.632,0c-0.276,0-0.5,0.223-0.5,0.5c0,0.275,0.224,0.5,0.5,0.5
		c0,0,0.693,0,1.568,0c1.094,0,1.145,1.036,1.031,1.406c-0.125,0.406-0.272,0.707-0.279,0.721C30.012,33.672,29.525,34,28.494,34
		h-5.466c-2.747,0-5.471-0.623-5.541-0.639c-4.154-0.957-4.373-1.031-4.634-1.105c0,0-0.846-0.143-0.846-0.881L12,17.563
		c0-0.469,0.299-0.892,0.794-1.042c0.062-0.025,0.146-0.05,0.206-0.075c4.568-1.892,5.959-6.04,6-9.446c0.006-0.478,0.375-1,1-1
		c1.058,0,2.926,2.122,2.926,4.748c0,2.371-0.095,2.781-0.926,5.252c10,0,9.93,0.144,10.813,0.375C33.906,16.687,34,17.594,34,17.906
		C34,18.249,33.99,18.199,33.978,18.535z"/>
	<path fill-rule="evenodd" clip-rule="evenodd" fill="white" d="M8.5,30C7.672,30,7,30.672,7,31.5C7,32.328,7.672,33,8.5,33
		c0.828,0,1.5-0.672,1.5-1.5C10,30.672,9.328,30,8.5,30z M8.5,32C8.225,32,8,31.775,8,31.5C8,31.225,8.225,31,8.5,31
		C8.775,31,9,31.225,9,31.5C9,31.775,8.775,32,8.5,32z"/>
</svg>
