<?xml version="1.0" encoding="utf-8"?>
<!DOCTYPE svg PUBLIC "-//W3C//DTD SVG 1.1//EN" "http://www.w3.org/Graphics/SVG/1.1/DTD/svg11.dtd">
<svg version="1.1" xmlns="http://www.w3.org/2000/svg" xmlns:xlink="http://www.w3.org/1999/xlink" x="0px" y="0px"
	 width="22px" height="32px" viewBox="0 0 22 32" enable-background="new 0 0 22 32" xml:space="preserve">
	<path fill="white" d="M19-0.001L3,0.001c-1.657,0-3,1.342-3,3v26c0,1.657,1.343,3,3,3l16-0.001c1.657,0,3-1.343,3-3v-26
		C22,1.342,20.657-0.001,19-0.001z M20,28.999c0,0.552-0.448,1-1,1L3,30c-0.552,0-1-0.448-1-1v-2.004l18-0.001V28.999z M20,25.995
		L2,25.996V6l18-0.001V25.995z M20,4.999L2,5.001V3c0-0.552,0.448-1,1-1l16-0.001c0.552,0,1,0.448,1,1V4.999z"/>
	<path fill="white" d="M13,3.499c0,0.276-0.224,0.5-0.5,0.5h-3c-0.276,0-0.5-0.224-0.5-0.5l0,0c0-0.276,0.224-0.5,0.5-0.5h3
		C12.776,2.999,13,3.223,13,3.499L13,3.499z"/>
	<path fill="white" d="M12,28.495c0,0.276-0.224,0.5-0.5,0.5h-1c-0.276,0-0.5-0.224-0.5-0.5l0,0c0-0.276,0.224-0.5,0.5-0.5h1
		C11.776,27.996,12,28.219,12,28.495L12,28.495z"/>
</svg>
