<?xml version="1.0" encoding="utf-8"?>
<!DOCTYPE svg PUBLIC "-//W3C//DTD SVG 1.1//EN" "http://www.w3.org/Graphics/SVG/1.1/DTD/svg11.dtd">
<svg version="1.1" xmlns="http://www.w3.org/2000/svg" xmlns:xlink="http://www.w3.org/1999/xlink" x="0px" y="0px"
	 width="32px" height="32px" viewBox="0 -2 32 30" enable-background="new 0 -2 32 30" xml:space="preserve">
	<path fill="white" d="M27,3.998L5,4.002c-0.553,0-1,0.443-1,0.996v14c0,0.553,0.447,1,1,1h22c0.553,0,1-0.447,1-1v-14
		C28,4.445,27.553,3.998,27,3.998z M27,19.002H5V4.998h22V19.002z"/>
	<path fill="white" d="M29,0.002H3c-1.657,0-3,1.343-3,3v20c0,1.654,1.338,2.994,2.99,2.999H13v1.216l-6.242,0.812
		C6.313,28.139,6,28.539,6,28.998c0,0.553,0.447,1,1,1h18c0.553,0,1-0.447,1-1c0-0.459-0.312-0.859-0.758-0.97L19,27.216v-1.216
		h10.01c1.652-0.005,2.99-1.345,2.99-2.999v-20C32,1.345,30.657,0.002,29,0.002z M30,23.002c0,0.552-0.448,1-1,1h-9h-8H3
		c-0.552,0-1-0.448-1-1v-20c0-0.552,0.448-1,1-1h26c0.552,0,1,0.449,1,1V23.002z"/>
</svg>
