<?xml version="1.0" encoding="utf-8"?>
<!DOCTYPE svg PUBLIC "-//W3C//DTD SVG 1.1//EN" "http://www.w3.org/Graphics/SVG/1.1/DTD/svg11.dtd">
<svg version="1.1" xmlns="http://www.w3.org/2000/svg" xmlns:xlink="http://www.w3.org/1999/xlink" x="0px" y="0px"
	 width="32px" height="21px" viewBox="0 0 32 21" enable-background="new 0 0 32 21" xml:space="preserve">
	<path fill="white" d="M28,0H4C1.791,0,0,1.791,0,4v12.999c0,2.209,1.791,4,4,4h24c2.209,0,4-1.791,4-4V4C32,1.791,30.209,0,28,0z
		 M2,5.25l6.999,5.25L2,15.749V5.25z M30,16.999c0,1.103-0.897,2-2,2H4c-1.103,0-2-0.896-2-2l7.832-5.874l4.368,3.277
		c0.533,0.398,1.166,0.599,1.8,0.599c0.634,0,1.267-0.201,1.8-0.599l4.368-3.277L30,16.999L30,16.999z M30,15.749L23.001,10.5
		L30,5.25V15.749z M17.2,13.601c-0.35,0.262-0.765,0.401-1.2,0.401c-0.436,0-0.851-0.139-1.2-0.401L10.665,10.5L9.832,9.875L2,4.001
		V4c0-1.103,0.897-2,2-2h24c1.103,0,2,0.897,2,2L17.2,13.601z"/>
</svg>
