<?xml version="1.0" encoding="utf-8"?>
<!DOCTYPE svg PUBLIC "-//W3C//DTD SVG 1.1//EN" "http://www.w3.org/Graphics/SVG/1.1/DTD/svg11.dtd">
<svg version="1.1" xmlns="http://www.w3.org/2000/svg" xmlns:xlink="http://www.w3.org/1999/xlink" x="0px" y="0px"
	 width="24px" height="32px" viewBox="0 0 24 32" enable-background="new 0 0 24 32" xml:space="preserve">
	<path fill-rule="evenodd" clip-rule="evenodd" fill="white" d="M12.001,17.746c3.308,0,6-2.691,6-6c0-3.308-2.691-6-6-6
		c-3.309,0-6,2.691-6,6C6.001,15.054,8.692,17.746,12.001,17.746z M12.001,6.746c2.758,0,5,2.242,5,5c0,2.758-2.242,5-5,5
		c-2.758,0-5-2.242-5-5C7.001,8.988,9.243,6.746,12.001,6.746z"/>
	<path fill-rule="evenodd" clip-rule="evenodd" fill="white" d="M12,0C5.382,0-0.001,5.316-0.001,12.002
		c0,7.001,6.001,14.161,10.376,19.193C10.392,31.215,11.094,32,11.962,32c0.002,0,0.073,0,0.076,0c0.868,0,1.57-0.785,1.587-0.805
		c4.376-5.032,10.376-12.192,10.376-19.193C24.001,5.316,18.618,0,12,0z M12.116,29.882c-0.021,0.02-0.082,0.066-0.135,0.099
		c-0.01-0.029-0.084-0.087-0.129-0.134c-3.665-4.217-9.853-11.333-9.853-17.846C1.999,6.487,6.486,2,12,2
		c5.515,0,10.001,4.487,10.001,10.002C22.001,18.514,15.814,25.631,12.116,29.882z"/>
</svg>
